# xmcd CD database file generated by Grip 3.2.0
# 
# Track frame offsets:
#       150
#       19818
#       41993
#       57120
#       86978
#       102413
#       122813
#       141145
#       167455
#       179633
#       193028
#       204795
#       217778
#       230760
#       243725
#       256080
# 
# Disc length: 3599 seconds
# 
# Revision: 2
# Processed by: cddbd v1.5.2PL0 Copyright (c) Steve Scherf et al.
# Submitted via: Grip 3.2.0
# 
DISCID=e60e0d10
DTITLE=Muddy Waters - Electric Mud and More
DYEAR=1968
DGENRE=Blues
TTITLE0=I Just Want To Make Love To You
TTITLE1=I'm Your Hoochie Coochie Man
TTITLE2=Let's Spend The Night Together
TTITLE3=She's All Right
TTITLE4=I'm A Man (Manish Boy)
TTITLE5=Herbert Harper's Free Press
TTITLE6=Tom Cat
TTITLE7=The Same Thing
TTITLE8=The Same Thing (1964)
TTITLE9=Manish Boy (1955)
TTITLE10=She's All Right (1953)
TTITLE11=I'm Your Hoochie Coochie Man (1954)
TTITLE12=I Just Want To Make Love To You (1954)
TTITLE13=Got My Mojo Working (1957)
TTITLE14=I Can't Be Satisfied (1947/1948)
TTITLE15=Rolling Stone (1950)
EXTD=
EXTT0=
EXTT1=
EXTT2=
EXTT3=
EXTT4=
EXTT5=
EXTT6=
EXTT7=
EXTT8=
EXTT9=
EXTT10=
EXTT11=
EXTT12=
EXTT13=
EXTT14=
EXTT15=
PLAYORDER=
